# xmcd
#
# Track frame offsets:
#	150
#	19331
#	39853
#	59282
#	82294
#	103324
#	122436
#	144166
#	159523
#	174569
#	194218
#	216626
#	235834
#	250831
#	269608
#	288136
#	307161
#
# Disc length: 4437 seconds
#
# Revision: 0
# Processed by: cddbd v1.5.2PL0 Copyright (c) Steve Scherf et al.
# Submitted via: dBpowerAMP V4.0
#
DISCID=03115311
DTITLE=Randy Crawford - Hits
DYEAR=1900
DGENRE=
TTITLE0=01 You Might Need Somebody
TTITLE1=02 Who's Crying Now
TTITLE2=03 Streetlife
TTITLE3=04 Knockin' On Heaven's Door
TTITLE4=05 You
TTITLE5=06 Rio De Janeiro Blue
TTITLE6=07 Give Me The Night (Chill Night Remix)
TTITLE7=08 Secret Combination
TTITLE8=09 Why
TTITLE9=10 One Day I'll Fly Away
TTITLE10=11 Shine
TTITLE11=12 Rainy Night In Georgia
TTITLE12=13 One Hello
TTITLE13=14 Same Old Story (Same Old Song)
TTITLE14=15 Almaz
TTITLE15=16 Tender Falls The Rain
TTITLE16=17 Imagine
EXTD=
EXTT0=
EXTT1=
EXTT2=
EXTT3=
EXTT4=
EXTT5=
EXTT6=
EXTT7=
EXTT8=
EXTT9=
EXTT10=
EXTT11=
EXTT12=
EXTT13=
EXTT14=
EXTT15=
EXTT16=
PLAYORDER=
